<svg width="20" height="20" viewBox="0 0 20 20" fill="none" xmlns="http://www.w3.org/2000/svg">
<g id="gis:measure-line" clip-path="url(#clip0_670_20005)">
<path id="gisMeasureLine0" fill-rule="evenodd" clip-rule="evenodd" d="M6.8532 0C5.614 0 4.5964 1.018 4.5964 2.257C4.5964 2.9558 4.9206 3.5838 5.4254 3.999L3.6042 7.762C3.48943 7.74297 3.37334 7.733 3.257 7.7322C2.0182 7.7324 1 8.7502 1 9.989C1 11.228 2.018 12.246 3.257 12.246C4.453 12.246 5.4336 11.295 5.5008 10.1146C5.50912 10.0733 5.51327 10.0313 5.5132 9.9892C5.51327 9.94709 5.50912 9.90508 5.5008 9.8638C5.4656 9.2452 5.1776 8.6914 4.741 8.3026L6.5832 4.496C6.672 4.5066 6.7616 4.5134 6.8532 4.5134C7.6828 4.5134 8.4082 4.056 8.7976 3.3818L11.9996 4.2278C12.1676 5.279 13.0696 6.0952 14.1578 6.1284L15.4176 9.9684C14.8556 10.3804 14.4868 11.0434 14.4868 11.7876C14.4868 13.0266 15.5044 14.044 16.7434 14.044C17.9394 14.044 18.9204 13.0934 18.9874 11.913C18.9958 11.8717 19 11.8297 19 11.7876C19 11.7456 18.9958 11.7036 18.9874 11.6624C18.9204 10.482 17.9394 9.5306 16.7434 9.5306C16.6954 9.5306 16.6484 9.5346 16.6012 9.5376L15.3778 5.808C15.9982 5.432 16.4264 4.7656 16.4698 4.001C16.4782 3.95973 16.4824 3.91772 16.4824 3.8756C16.4825 3.83349 16.4783 3.79148 16.47 3.7502C16.4028 2.5698 15.4218 1.6186 14.2258 1.6186C13.3088 1.6186 12.5142 2.177 12.1624 2.9694L9.102 2.1598C9.10061 2.15043 9.09901 2.1411 9.0972 2.1318C9.0302 0.9512 8.0492 0 6.8532 0ZM6.8532 1.2586C7.4118 1.2586 7.8512 1.6984 7.8512 2.257C7.8512 2.8156 7.4118 3.2546 6.8532 3.2546C6.2944 3.2546 5.8552 2.8156 5.8552 2.257C5.8552 1.6984 6.2944 1.2586 6.8532 1.2586ZM14.2258 2.877C14.7844 2.877 15.2238 3.3168 15.2238 3.8754C15.2238 4.434 14.7844 4.873 14.2258 4.873C13.6672 4.873 13.2278 4.434 13.2278 3.8754C13.2278 3.3168 13.6672 2.877 14.2258 2.877ZM3.257 8.991C3.8156 8.991 4.2546 9.4304 4.2546 9.989C4.2546 10.5476 3.8156 10.987 3.257 10.987C2.6984 10.987 2.2586 10.5476 2.2586 9.989C2.2586 9.4304 2.6984 8.991 3.257 8.991ZM16.7434 10.789C17.302 10.789 17.7414 11.229 17.7414 11.7874C17.7414 12.3462 17.302 12.7852 16.7434 12.7852C16.1848 12.7852 15.7454 12.3462 15.7454 11.7874C15.7454 11.2288 16.1848 10.789 16.7434 10.789ZM1 15.2L1 20L19 20V15.2H17.746V18.7792H16.2086L16.2086 16.2348H14.9546L14.9546 18.7792H13.4184L13.4184 16.2348H12.1648L12.1648 18.7792L10.6268 18.7792L10.6268 15.2H9.373L9.373 18.7792H7.835V16.2348H6.5816V18.7792H5.0454V16.2348H3.7914L3.7914 18.7792H2.254L2.254 15.2H1Z" fill="#343330"/>
</g>
<defs>
<clipPath id="clip0_670_20005">
<rect width="20" height="20" fill="white"/>
</clipPath>
</defs>
</svg>
