<svg width="20" height="20" viewBox="0 0 20 20" fill="none" xmlns="http://www.w3.org/2000/svg">
<g id="tabler:ruler-measure">
<path id="Vector" d="M10 7.5L8.33333 7.5M10 5L7.5 5M10 10L7.5 10M10 15L7.5 15M10 12.5L8.33333 12.5M17.5 2.5L14.1667 2.5M15.8333 2.5L15.8333 17.5M17.5 17.5L14.1667 17.5M10 16.5625C10 17.08 9.57333 17.5 9.0475 17.5L4.28583 17.5C3.76 17.5 3.33333 17.08 3.33333 16.5625L3.33333 3.33333C3.33333 3.11232 3.42113 2.90036 3.57741 2.74408C3.73369 2.5878 3.94565 2.5 4.16667 2.5L9.0475 2.5C9.57333 2.5 10 2.92 10 3.4375L10 16.5625Z" stroke="#343330" stroke-width="1.66667" stroke-linecap="round" stroke-linejoin="round"/>
</g>
</svg>
