<svg width="1728" height="318" viewBox="0 0 1728 318" fill="none" xmlns="http://www.w3.org/2000/svg">
<path d="M1628.77 127.949C1593 161.215 1590.97 217.182 1624.23 252.956C1657.5 288.73 1713.47 290.763 1749.24 257.497L1752.41 254.548L1631.95 125L1628.77 127.949Z" fill="#FFB715" fill-opacity="0.24"/>
<path d="M-38.3914 205.067C-20.2405 253.999 34.1402 278.951 83.0714 260.8C132.003 242.649 156.955 188.269 138.804 139.337L137.195 135L-40.0004 200.73L-38.3914 205.067Z" fill="#E0F4FB"/>
<path d="M1303.98 165.071C1348.92 191.618 1406.86 176.712 1433.41 131.779C1459.95 86.8452 1445.05 28.8995 1400.12 2.35319L1396.13 1.92732e-05L1300 162.718L1303.98 165.071Z" fill="#EFA3BD" fill-opacity="0.24"/>
</svg>
