<svg width="61" height="60" viewBox="0 0 61 60" fill="none" xmlns="http://www.w3.org/2000/svg">
<path d="M54.7003 42.4L46.8753 24.125C44.2253 17.925 39.3503 17.675 36.0753 23.575L31.3503 32.1C28.9503 36.425 24.4753 36.8 21.3753 32.925L20.8253 32.225C17.6003 28.175 13.0503 28.675 10.7253 33.3L6.4253 41.925C3.4003 47.925 7.7753 55 14.4753 55H46.3753C52.8753 55 57.2503 48.375 54.7003 42.4ZM17.9253 20C19.9144 20 21.8221 19.2098 23.2286 17.8033C24.6351 16.3968 25.4253 14.4891 25.4253 12.5C25.4253 10.5109 24.6351 8.60322 23.2286 7.1967C21.8221 5.79018 19.9144 5 17.9253 5C15.9362 5 14.0285 5.79018 12.622 7.1967C11.2155 8.60322 10.4253 10.5109 10.4253 12.5C10.4253 14.4891 11.2155 16.3968 12.622 17.8033C14.0285 19.2098 15.9362 20 17.9253 20Z" stroke="black" stroke-width="1.5" stroke-linecap="round" stroke-linejoin="round"/>
</svg>
