<svg width="133" height="48" viewBox="0 0 133 48" fill="none" xmlns="http://www.w3.org/2000/svg">
<rect y="2.5" width="45.5" height="45.5" rx="7.58333" fill="white"/>
<rect y="2.5" width="45.5" height="45.5" rx="7.58333" fill="url(#paint0_radial_3005_11801)"/>
<ellipse cx="22.7499" cy="25.2963" rx="18.7955" ry="17.8185" transform="rotate(-90 22.7499 25.2963)" fill="black" fill-opacity="0.13"/>
<path d="M22.7499 6.96603C32.3108 6.96603 40.1032 15.1491 40.1032 25.2963C40.1032 35.4435 32.3108 43.6266 22.7499 43.6266C13.189 43.6266 5.39663 35.4435 5.39663 25.2963C5.39663 15.1491 13.189 6.96603 22.7499 6.96603Z" stroke="url(#paint1_linear_3005_11801)" stroke-opacity="0.8" stroke-width="0.93047" style="mix-blend-mode:hard-light"/>
<g filter="url(#filter0_f_3005_11801)">
<path d="M30.3097 15.6104H15.1727C15.0185 15.6104 14.8936 15.7353 14.8936 15.8895V18.7345C14.8936 18.8887 15.0185 19.0137 15.1727 19.0137H20.4559C20.61 19.0137 20.735 19.1386 20.735 19.2928V35.8558C20.735 36.0099 20.86 36.1349 21.0142 36.1349H24.4682C24.6224 36.1349 24.7473 36.0099 24.7473 35.8558V19.2928C24.7473 19.1386 24.8723 19.0137 25.0265 19.0137H30.3097C30.4638 19.0137 30.5888 18.8887 30.5888 18.7345V15.8895C30.5888 15.7353 30.4638 15.6104 30.3097 15.6104Z" fill="#790000" fill-opacity="0.6"/>
</g>
<path d="M31.1176 14.4033H14.4745C14.1604 14.4033 13.9058 14.658 13.9058 14.9721V17.701C13.9058 18.0151 14.1604 18.2697 14.4745 18.2697H20.2442C20.3984 18.2697 20.5234 18.3947 20.5234 18.5489V35.5665C20.5234 35.8806 20.778 36.1352 21.0921 36.1352H24.5C24.8142 36.1352 25.0688 35.8806 25.0688 35.5665V18.5489C25.0688 18.3947 25.1938 18.2697 25.3479 18.2697H31.1176C31.4318 18.2697 31.6864 18.0151 31.6864 17.701V14.9721C31.6864 14.658 31.4318 14.4033 31.1176 14.4033Z" fill="#FFFEFE"/>
<path fill-rule="evenodd" clip-rule="evenodd" d="M95.5544 17.8056V20.5071H94.2273H92.9002V22.3082V24.1092H94.223H95.5457L95.5765 30.5787C95.604 36.3817 95.6239 37.0979 95.7694 37.5304C96.3879 39.3684 98.1434 40.0352 101.976 39.8879L103.706 39.8216V37.9372V36.053L102.593 36.0477C101.21 36.041 100.856 35.9353 100.702 35.4842C100.62 35.2429 100.588 33.6478 100.584 29.6308L100.578 24.1092H102.142H103.706V22.3082V20.5071H102.142H100.578V17.8056V15.104H98.0663H95.5544V17.8056ZM58.1591 19.9445C55.9716 20.2417 54.2735 21.0491 53.2503 22.2785C52.5227 23.1528 51.9309 24.6564 51.7959 25.9738L51.7345 26.5738H54.1552H56.5761L56.6847 26.1235C56.8633 25.3828 57.2578 24.7578 57.7573 24.4238C58.3686 24.0151 59.0684 23.8851 60.3393 23.9444C62.0793 24.0254 62.7973 24.4213 63.0401 25.4334C63.1905 26.0602 63.1008 26.4988 62.7377 26.9124C62.1977 27.5275 61.719 27.6665 58.87 28.035C55.322 28.494 53.7463 29.088 52.5215 30.4281C52.0022 30.9963 51.4764 32.008 51.2733 32.83C51.1957 33.1442 51.1471 33.8411 51.1511 34.5837C51.157 35.6679 51.1887 35.9058 51.4156 36.564C51.9009 37.9718 52.7151 38.8884 54.083 39.5667C54.5001 39.7736 55.1399 40.0053 55.5049 40.0817C56.3476 40.258 57.9716 40.2603 58.7925 40.0863C60.0874 39.8118 61.4503 39.0698 62.6443 37.9894C62.957 37.7063 63.2319 37.4748 63.2553 37.4748C63.2787 37.4748 63.3235 37.7415 63.355 38.0673C63.3864 38.3932 63.4795 38.8837 63.5619 39.1574L63.7117 39.655H66.457H69.2023V39.2996C69.2023 39.005 69.1438 38.8974 68.8607 38.6716C68.183 38.1308 68.2129 38.4506 68.1539 31.1238C68.0954 23.8637 68.11 24.0432 67.4812 22.8635C66.7777 21.5435 65.0987 20.5733 62.6593 20.0773C61.7948 19.9015 59.0677 19.821 58.1591 19.9445ZM82.2361 19.9114C80.4998 20.1515 79.1883 20.9472 78.087 22.4289L77.5913 23.0958L77.5651 21.7066L77.5389 20.3175H75.1242H72.7096V29.9863V39.655H75.217H77.7245L77.7579 33.5647C77.7936 27.0565 77.7834 27.2034 78.2792 26.0827C78.5197 25.5389 79.1526 24.838 79.6846 24.5261C80.2439 24.1984 81.3343 23.984 82.0971 24.0517C83.8221 24.205 84.6991 25.053 84.9329 26.7939C84.9937 27.2467 85.0325 29.8948 85.0325 33.5952V39.655H87.5952H90.1578L90.1285 32.1902L90.0991 24.7254L89.8815 24.0151C89.3229 22.1919 88.2404 21.0516 86.4166 20.3651C85.2854 19.9393 83.4636 19.7416 82.2361 19.9114ZM113.091 19.9007C110.734 20.185 109.019 20.9194 107.961 22.0979C107.14 23.0124 106.505 24.5498 106.32 26.0761L106.259 26.5738H108.727C111.116 26.5738 111.195 26.5678 111.195 26.3878C111.195 25.9336 111.611 25.0932 112.045 24.6691C112.674 24.0549 113.355 23.8771 114.814 23.9458C115.991 24.0012 116.414 24.0976 116.885 24.4182C117.419 24.7816 117.584 25.0898 117.622 25.7948C117.652 26.3423 117.626 26.478 117.433 26.762C116.979 27.4308 116.235 27.6775 113.707 27.9981C112.821 28.1106 111.697 28.2837 111.211 28.383C107.449 29.1501 105.694 31.0915 105.698 34.4804C105.701 36.2376 106.075 37.3333 107.024 38.3635C108.136 39.5698 109.425 40.1179 111.343 40.1994C113.647 40.2974 115.434 39.6159 117.174 37.9753L117.8 37.3857L117.947 38.2597C118.027 38.7404 118.14 39.251 118.196 39.3944L118.3 39.655H121.051H123.802L123.801 39.2996C123.8 38.9989 123.749 38.9114 123.472 38.732C122.714 38.2407 122.676 37.8475 122.67 30.3841C122.664 24.2977 122.646 24.0691 122.075 22.9328C121.381 21.5525 119.872 20.656 117.334 20.1168C116.481 19.9353 113.895 19.8037 113.091 19.9007ZM62.8013 30.3991C62.4192 30.6615 61.5264 30.923 60.0235 31.2126C57.6148 31.6767 56.8735 32.0378 56.4467 32.9542C56.1281 33.6385 56.1199 34.7798 56.4291 35.393C57.1069 36.7372 59.2845 36.9737 61.1924 35.9106C62.1492 35.3774 62.6977 34.6188 62.9399 33.4936C63.0859 32.8151 63.1937 30.2707 63.0764 30.2707C63.0279 30.2707 62.904 30.3285 62.8013 30.3991ZM117.309 30.4367C116.767 30.721 116.061 30.9235 114.603 31.213C112.738 31.5833 112.077 31.8054 111.584 32.2275C111.081 32.6583 110.829 33.1546 110.755 33.8599C110.559 35.7311 111.864 36.8386 113.911 36.5385C114.821 36.405 116.033 35.853 116.548 35.338C117.333 34.5537 117.668 33.3206 117.621 31.3929L117.593 30.2875L117.309 30.4367ZM70.6242 45.5321V47.9019H70.9559H71.2877V45.5321V43.1623H70.9559H70.6242V45.5321ZM92.0155 43.2256C91.9807 43.2603 91.9523 43.4096 91.9523 43.5573C91.9523 43.7925 91.9876 43.8259 92.2367 43.8259C92.4985 43.8259 92.521 43.7995 92.521 43.4941C92.521 43.2097 92.4895 43.1623 92.2999 43.1623C92.1782 43.1623 92.0502 43.1908 92.0155 43.2256ZM102.285 45.5321V47.9019H103.801H105.318V47.6175V47.3332H104.133H102.948V45.2478V43.1623H102.616H102.285V45.5321ZM105.887 43.4941C105.887 43.7995 105.909 43.8259 106.171 43.8259C106.433 43.8259 106.455 43.7995 106.455 43.4941C106.455 43.1887 106.433 43.1623 106.171 43.1623C105.909 43.1623 105.887 43.1887 105.887 43.4941ZM112.806 43.4941C112.806 43.7995 112.829 43.8259 113.091 43.8259C113.353 43.8259 113.375 43.7995 113.375 43.4941C113.375 43.1887 113.353 43.1623 113.091 43.1623C112.829 43.1623 112.806 43.1887 112.806 43.4941ZM122.001 44.0192V44.876L121.795 44.6838C121.325 44.2464 120.379 44.3566 119.979 44.8953C119.287 45.8277 119.438 47.2168 120.295 47.7911C120.714 48.0719 121.415 48.0404 121.75 47.726C122.019 47.4733 122.096 47.4702 122.096 47.7123C122.096 47.8514 122.159 47.9019 122.333 47.9019H122.57V45.5321V43.1623H122.286H122.001V44.0192ZM90.246 44.0155C90.246 44.4262 90.2207 44.4894 90.0564 44.4894C89.9174 44.4894 89.8669 44.5526 89.8669 44.7264C89.8669 44.8962 89.918 44.9634 90.0473 44.9634C90.2146 44.9634 90.2303 45.0601 90.2606 46.2761C90.2986 47.7991 90.3435 47.9019 90.9685 47.9019C91.348 47.9019 91.3835 47.8816 91.3835 47.6649C91.3835 47.4782 91.3355 47.428 91.1567 47.428C91.0319 47.428 90.904 47.3605 90.8723 47.278C90.8407 47.1955 90.8148 46.641 90.8148 46.0457V44.9634H91.0992C91.3372 44.9634 91.3835 44.9258 91.3835 44.7327C91.3835 44.5515 91.3276 44.4956 91.1229 44.472C90.8842 44.4446 90.8597 44.4041 90.8333 43.9918C90.8058 43.5631 90.791 43.5415 90.5252 43.5415C90.2534 43.5415 90.246 43.554 90.246 44.0155ZM114.418 44.0155C114.418 44.4579 114.402 44.4894 114.181 44.4894C113.991 44.4894 113.944 44.5368 113.944 44.7264C113.944 44.916 113.991 44.9634 114.181 44.9634H114.418V46.2219C114.418 47.7433 114.485 47.9019 115.134 47.9019C115.517 47.9019 115.555 47.881 115.555 47.6712C115.555 47.4901 115.499 47.4341 115.295 47.4105L115.034 47.3806L115.008 46.1785L114.981 44.9766L115.245 44.9462C115.434 44.9245 115.517 44.8561 115.538 44.7027C115.564 44.5213 115.525 44.4894 115.278 44.4894C114.992 44.4894 114.987 44.4813 114.987 44.0155C114.987 43.552 114.98 43.5415 114.702 43.5415C114.424 43.5415 114.418 43.552 114.418 44.0155ZM73.1494 44.6288C72.8222 44.8508 72.8044 44.8532 72.8044 44.6762C72.8044 44.5319 72.7397 44.4894 72.52 44.4894H72.2356V46.1957V47.9019H72.52H72.8044V46.7185C72.8044 45.5468 72.8071 45.532 73.0791 45.2278C73.3063 44.9734 73.4225 44.9202 73.7518 44.9202C74.3632 44.9202 74.4158 45.0527 74.4158 46.5929V47.9019H74.7002H74.9846V46.4738C74.9846 45.6756 74.9415 44.9653 74.8869 44.8634C74.6236 44.3713 73.7105 44.248 73.1494 44.6288ZM76.842 44.6316C76.4209 44.9174 76.4064 44.919 76.4064 44.679C76.4064 44.5399 76.3432 44.4894 76.1695 44.4894H75.9325V46.1957V47.9019H76.2169H76.5012V46.7108C76.5012 46.0557 76.5451 45.4376 76.5989 45.3373C76.7152 45.12 77.1709 44.8686 77.4488 44.8686C77.558 44.8686 77.752 44.9733 77.88 45.1013C78.1042 45.3254 78.1127 45.381 78.1127 46.618V47.9019H78.3971H78.6814V46.5655C78.6814 45.0948 78.5794 44.6977 78.1511 44.5026C77.7521 44.3208 77.2232 44.3729 76.842 44.6316ZM80.1033 44.6003C79.0901 45.2794 79.0891 47.2937 80.1018 47.8238C80.5777 48.0729 81.3186 48.0531 81.723 47.7806C82.233 47.437 82.4697 46.9253 82.4716 46.1626C82.4743 45.0041 82.0327 44.4763 81.0079 44.4133C80.5284 44.3837 80.3811 44.4143 80.1033 44.6003ZM87.0529 44.5795C86.719 44.783 86.5492 45.0383 86.5492 45.3363C86.5492 45.6542 86.9406 45.5808 87.1666 45.2204C87.3264 44.9656 87.4242 44.9111 87.7668 44.8865C88.3363 44.8454 88.6555 45.0635 88.6165 45.4669C88.5874 45.7667 88.5815 45.77 87.8762 45.8711C87.4852 45.9272 87.0704 46.0044 86.9545 46.0426C86.4492 46.2091 86.2141 46.9101 86.4729 47.478C86.7211 48.0231 87.549 48.1544 88.2414 47.7586C88.7269 47.481 88.7294 47.4806 88.7294 47.6673C88.7294 47.8441 89.1628 48.0223 89.4054 47.9453C89.6408 47.8706 89.6322 47.5578 89.3929 47.4953C89.2156 47.4489 89.2033 47.366 89.2033 46.2224C89.2033 45.1114 89.1851 44.9796 89.0046 44.7858C88.7359 44.4974 88.4311 44.3945 87.8464 44.395C87.527 44.3952 87.2491 44.4598 87.0529 44.5795ZM97.547 44.4953C96.932 44.7542 96.5852 45.3853 96.5852 46.2461C96.5852 46.8746 96.673 47.1342 97.0118 47.5081C97.4523 47.9942 98.1681 48.1349 98.8183 47.8632C99.0979 47.7465 99.6304 47.1358 99.6304 46.932C99.6304 46.892 99.5209 46.8592 99.3871 46.8592C99.2317 46.8592 99.0306 46.9792 98.8308 47.191C98.6046 47.4308 98.4369 47.5228 98.2255 47.5228C97.7884 47.5228 97.4766 47.3434 97.3126 46.9976C97.0275 46.397 97.0336 46.3935 98.4201 46.3643L99.6743 46.3379L99.6436 45.9113C99.5761 44.9755 99.1138 44.4775 98.2646 44.4257C97.9991 44.4095 97.6762 44.4409 97.547 44.4953ZM108.274 44.6316C107.933 44.9181 107.877 44.9248 107.877 44.679C107.877 44.5399 107.814 44.4894 107.64 44.4894H107.403V46.1957V47.9019H107.629C107.852 47.9019 107.855 47.8901 107.893 46.7307C107.924 45.8197 107.97 45.5028 108.099 45.3045C108.425 44.8082 109.129 44.7524 109.302 45.2092C109.353 45.3414 109.394 46.0014 109.394 46.6758V47.9019H109.678H109.963V46.6749C109.963 45.5207 109.976 45.4324 110.187 45.1867C110.358 44.988 110.497 44.9255 110.767 44.9255C111.328 44.9255 111.385 45.0797 111.385 46.5929V47.9019H111.669H111.953V46.5227C111.953 45.0124 111.875 44.7086 111.435 44.5079C111.034 44.3251 110.589 44.3733 110.193 44.6424C109.965 44.7968 109.814 44.8496 109.792 44.7826C109.733 44.6065 109.238 44.3946 108.885 44.3946C108.672 44.3946 108.456 44.4784 108.274 44.6316ZM116.747 44.6039C116.519 44.7374 116.288 44.9858 116.148 45.2478C115.955 45.6087 115.925 45.7793 115.953 46.3567C115.989 47.1124 116.143 47.4096 116.692 47.7834C117.056 48.031 117.67 48.0665 118.146 47.8674C118.482 47.7269 118.968 47.2108 118.968 46.9941C118.968 46.7876 118.425 46.818 118.358 47.0283C118.283 47.2648 117.811 47.5228 117.453 47.5228C117.13 47.5228 116.598 47.0899 116.598 46.8269C116.598 46.7489 116.572 46.6177 116.541 46.5352C116.49 46.403 116.637 46.3853 117.786 46.3853H119.089L119.034 45.8458C118.944 44.9773 118.452 44.4817 117.621 44.4225C117.226 44.3943 117.041 44.4327 116.747 44.6039ZM82.8974 44.6553C82.9334 44.7465 83.1904 45.4397 83.4684 46.1957C83.7465 46.9516 84.0034 47.6448 84.0395 47.736C84.0825 47.8452 84.2072 47.9019 84.4043 47.9019C84.6998 47.9019 84.7092 47.8872 85.119 46.7881C85.3475 46.1756 85.6344 45.4078 85.7566 45.0819L85.9788 44.4894L85.6715 44.4901L85.3643 44.4907L84.9048 45.8172C84.6521 46.5467 84.4317 47.1436 84.415 47.1436C84.3983 47.1436 84.1856 46.5464 83.9424 45.8165L83.5001 44.4894H83.166C82.8862 44.4894 82.8426 44.5163 82.8974 44.6553ZM91.9523 46.1957V47.9019H92.2367H92.521V46.1957V44.4894H92.2367H91.9523V46.1957ZM93.0898 44.5239C93.0898 44.5562 93.5357 45.767 94.098 47.2621C94.3271 47.8711 94.3534 47.9019 94.6463 47.9019C94.9089 47.9019 94.9688 47.857 95.0566 47.5938C95.1132 47.4244 95.3975 46.6673 95.6883 45.9113C95.9792 45.1553 96.2173 44.5261 96.2175 44.5131C96.2177 44.5001 96.0793 44.4895 95.9098 44.4895L95.6018 44.4897L95.1197 45.8782L94.6377 47.2666L94.1924 45.878L93.7472 44.4894H93.4185C93.2377 44.4894 93.0898 44.505 93.0898 44.5239ZM105.887 46.1957V47.9019H106.171H106.455V46.1957V44.4894H106.171H105.887V46.1957ZM112.806 46.1957V47.9019H113.091H113.375V46.1957V44.4894H113.091H112.806V46.1957ZM80.3599 45.0597C80.0353 45.3151 79.8826 45.8187 79.9357 46.4592C79.9725 46.9026 80.0268 47.0283 80.2798 47.2543C80.6261 47.5637 81.076 47.6086 81.4193 47.3681C82.0576 46.921 82.0686 45.305 81.4356 44.9662C81.1402 44.8081 80.6226 44.853 80.3599 45.0597ZM97.5619 45.1186C97.3999 45.2678 97.2399 45.5073 97.2063 45.6506L97.1453 45.9113H98.1154H99.0854L99.0238 45.6035C98.9399 45.1842 98.6882 44.9588 98.2359 44.8982C97.9115 44.8547 97.8133 44.8868 97.5619 45.1186ZM117.106 44.9626C116.843 45.0689 116.598 45.4216 116.598 45.6955C116.598 45.9057 116.623 45.9113 117.548 45.9113H118.498L118.439 45.6506C118.309 45.0694 117.665 44.7369 117.106 44.9626ZM120.765 44.9722C120.403 45.1052 120.171 45.575 120.162 46.1889C120.153 46.8967 120.409 47.3475 120.89 47.4679C121.572 47.6385 122.006 47.174 122.028 46.2515C122.042 45.6285 121.86 45.1829 121.519 45.0063C121.218 44.851 121.108 44.8459 120.765 44.9722ZM87.7875 46.3391C87.1256 46.4702 86.9022 46.6583 86.948 47.0458C86.9871 47.3762 87.3696 47.5678 87.8213 47.483C88.3365 47.3863 88.6346 47.0551 88.6346 46.5791C88.6346 46.1515 88.6759 46.1632 87.7875 46.3391Z" fill="#262626"/>
<defs>
<filter id="filter0_f_3005_11801" x="13.4048" y="14.1216" width="18.6727" height="23.5019" filterUnits="userSpaceOnUse" color-interpolation-filters="sRGB">
<feFlood flood-opacity="0" result="BackgroundImageFix"/>
<feBlend mode="normal" in="SourceGraphic" in2="BackgroundImageFix" result="shape"/>
<feGaussianBlur stdDeviation="0.744376" result="effect1_foregroundBlur_3005_11801"/>
</filter>
<radialGradient id="paint0_radial_3005_11801" cx="0" cy="0" r="1" gradientUnits="userSpaceOnUse" gradientTransform="translate(22.75 45.488) rotate(-88.2497) scale(44.9996 44.9996)">
<stop stop-color="#FF6868"/>
<stop offset="1" stop-color="#B60505"/>
</radialGradient>
<linearGradient id="paint1_linear_3005_11801" x1="23.5537" y1="5.34492" x2="22.5925" y2="41.3726" gradientUnits="userSpaceOnUse">
<stop stop-color="#460702"/>
<stop offset="1" stop-color="#F6BDB8"/>
</linearGradient>
</defs>
</svg>
