<svg width="21" height="20" viewBox="0 0 21 20" fill="none" xmlns="http://www.w3.org/2000/svg">
<g id="emojione-monotone:bed" clip-path="url(#clip0_129_11193)">
<g id="Vector">
<path d="M18.9652 12.3266V10.4972L17.1464 10.0397L17.0223 9.80719C16.8758 9.53375 16.7548 9.35938 16.6617 9.28937C16.5586 9.20969 16.3839 9.16625 16.218 9.14312C16.0927 8.91031 16.0067 8.87312 15.957 8.85125C15.9041 8.82886 15.847 8.81759 15.7895 8.81813C15.6527 8.81813 15.4873 8.88313 15.3495 8.9525C15.1373 8.72469 15.0173 8.72312 14.9536 8.7225H14.8836C14.2211 8.7225 13.3536 8.77063 12.4111 8.85375L12.1617 8.53625C12.1545 8.52688 11.4139 7.57844 11.2145 6.84562L11.1783 6.71281V4.14031C11.1783 4.14031 10.4477 4.24812 10.0883 3.34219H9.76609C9.76609 3.34219 9.68172 3.37687 9.53953 3.39469C9.25141 3.36187 8.87734 3.23187 8.48078 2.8575C7.43984 1.875 6.44609 1.875 6.44609 1.875H6.12391C6.12391 1.875 5.01203 1.875 3.84891 2.85781C3.42516 3.21594 3.01797 3.36938 2.73422 3.40313C2.51047 3.39313 2.37328 3.3425 2.37328 3.3425H2.05078C1.64922 4.24813 0.832031 4.14031 0.832031 4.14031V12.9597H0.960781V13.8769H1.39766L1.59609 13.2431L4.59578 15.1634C4.68328 15.7169 5.06453 16.9309 5.06453 16.9309C5.06453 16.9309 5.47484 15.9681 5.53984 15.7678L5.83922 15.9591L5.99172 16.735L6.17047 16.1709L7.13141 16.7869L7.24859 18.0066L7.42109 18.125L7.83703 18.0066L8.03609 16.8691L18.6661 15.0966L18.9295 16.1728L19.453 16.0866V14.9656L19.582 14.9438V12.6147L18.9652 12.3266ZM9.86484 6.845C10.5333 6.845 10.9314 6.92156 10.9314 6.92156C11.1492 7.72125 11.9305 8.71469 11.9305 8.71469L11.8333 8.71406C9.89359 8.71406 8.44359 9.29281 8.44359 9.29281C8.12953 8.06875 7.45672 7.15219 7.45672 7.15219C8.24372 6.95107 9.05255 6.84789 9.86484 6.845ZM5.72734 7.09437C6.47422 7.09437 6.91891 7.17969 6.91891 7.17969C7.16266 8.07406 8.03578 9.185 8.03578 9.185C8.00162 9.18464 7.96745 9.18443 7.93328 9.18437C5.76109 9.18437 4.13703 9.83219 4.13703 9.83219C3.78578 8.46281 3.03266 7.43813 3.03266 7.43813C4.11078 7.16563 5.04484 7.09437 5.72734 7.09437ZM2.90297 7.76781C3.24359 8.29769 3.51862 8.86696 3.72203 9.46312C3.57734 9.49813 3.49609 9.52063 3.49609 9.52063C2.36547 9.0775 2.02141 8.14969 2.02141 8.14969C2.30516 8.00024 2.59986 7.87259 2.90297 7.76781ZM4.70859 9.96187C4.54953 10.0866 4.26984 10.4837 4.20828 10.7384C4.14859 10.9862 4.21453 11.795 4.26547 12.3091L1.49453 10.9569V9.3275L2.48609 9.24687C2.75318 9.47885 3.05842 9.66282 3.38828 9.79063L3.48141 9.82719L3.57766 9.79969C3.58141 9.79875 3.66391 9.77594 3.80828 9.74156C3.82359 9.79531 3.83953 9.84906 3.85359 9.90406L3.93609 10.2253L4.24672 10.1019C4.25203 10.1 4.43484 10.0291 4.74891 9.93625C4.73547 9.94438 4.72016 9.95312 4.70859 9.96187ZM6.70516 14.7297C6.70516 14.7297 6.54609 13.9794 6.43078 13.9794C6.42141 13.9794 6.41172 13.9847 6.40297 13.9959C6.29891 14.1262 6.04578 15.3356 6.04578 15.3356C6.04578 15.3356 5.93141 14.5328 5.79641 14.5328C5.78328 14.5328 5.77047 14.54 5.75734 14.5559C5.43234 14.9503 5.09359 15.9547 5.09359 15.9547C5.09359 15.9547 4.68328 14.3234 4.76797 13.6503C4.85672 12.9447 5.24578 11.5913 5.53422 11.0191C5.67297 10.7431 6.01953 10.2106 6.24484 10.1431C8.30422 9.52719 12.717 9.01281 14.8833 9.01281H14.9498C15.0473 9.01375 15.2795 9.32719 15.2795 9.32719C15.2795 9.32719 15.6195 9.10844 15.7892 9.10844C15.8083 9.10844 15.8252 9.11125 15.8392 9.1175C15.9042 9.14594 16.0252 9.41437 16.0252 9.41437C16.0252 9.41437 16.3811 9.44094 16.4842 9.52031C16.5727 9.58719 16.7636 9.94312 16.7636 9.94312C16.7636 9.94312 16.2495 9.83594 16.117 9.83219C16.0283 9.82964 15.9395 9.82839 15.8508 9.82844C13.6505 9.82844 9.61141 10.5325 7.64109 11.3856C7.42609 11.4781 7.10797 12.0456 7.01922 12.3556C6.88953 12.8119 6.70516 14.7297 6.70516 14.7297ZM18.5789 12.4084L7.64109 13.9569L7.11016 13.6978C7.17234 13.17 7.24516 12.6322 7.30141 12.4347C7.36359 12.2163 7.54109 11.9044 7.66859 11.7447L18.5789 10.7066V12.4084Z" fill="#480130"/>
<path d="M18.9652 12.3266V10.4972L17.1464 10.0397L17.0223 9.80719C16.8758 9.53375 16.7548 9.35938 16.6617 9.28937C16.5586 9.20969 16.3839 9.16625 16.218 9.14312C16.0927 8.91031 16.0067 8.87312 15.957 8.85125C15.9041 8.82886 15.847 8.81759 15.7895 8.81813C15.6527 8.81813 15.4873 8.88313 15.3495 8.9525C15.1373 8.72469 15.0173 8.72312 14.9536 8.7225H14.8836C14.2211 8.7225 13.3536 8.77063 12.4111 8.85375L12.1617 8.53625C12.1545 8.52688 11.4139 7.57844 11.2145 6.84562L11.1783 6.71281V4.14031C11.1783 4.14031 10.4477 4.24812 10.0883 3.34219H9.76609C9.76609 3.34219 9.68172 3.37687 9.53953 3.39469C9.25141 3.36187 8.87734 3.23187 8.48078 2.8575C7.43984 1.875 6.44609 1.875 6.44609 1.875H6.12391C6.12391 1.875 5.01203 1.875 3.84891 2.85781C3.42516 3.21594 3.01797 3.36938 2.73422 3.40313C2.51047 3.39313 2.37328 3.3425 2.37328 3.3425H2.05078C1.64922 4.24813 0.832031 4.14031 0.832031 4.14031V12.9597H0.960781V13.8769H1.39766L1.59609 13.2431L4.59578 15.1634C4.68328 15.7169 5.06453 16.9309 5.06453 16.9309C5.06453 16.9309 5.47484 15.9681 5.53984 15.7678L5.83922 15.9591L5.99172 16.735L6.17047 16.1709L7.13141 16.7869L7.24859 18.0066L7.42109 18.125L7.83703 18.0066L8.03609 16.8691L18.6661 15.0966L18.9295 16.1728L19.453 16.0866V14.9656L19.582 14.9438V12.6147L18.9652 12.3266ZM9.86484 6.845C10.5333 6.845 10.9314 6.92156 10.9314 6.92156C11.1492 7.72125 11.9305 8.71469 11.9305 8.71469L11.8333 8.71406C9.89359 8.71406 8.44359 9.29281 8.44359 9.29281C8.12953 8.06875 7.45672 7.15219 7.45672 7.15219C8.24372 6.95107 9.05255 6.84789 9.86484 6.845ZM5.72734 7.09437C6.47422 7.09437 6.91891 7.17969 6.91891 7.17969C7.16266 8.07406 8.03578 9.185 8.03578 9.185C8.00162 9.18464 7.96745 9.18443 7.93328 9.18437C5.76109 9.18437 4.13703 9.83219 4.13703 9.83219C3.78578 8.46281 3.03266 7.43813 3.03266 7.43813C4.11078 7.16563 5.04484 7.09437 5.72734 7.09437ZM2.90297 7.76781C3.24359 8.29769 3.51862 8.86696 3.72203 9.46312C3.57734 9.49813 3.49609 9.52063 3.49609 9.52063C2.36547 9.0775 2.02141 8.14969 2.02141 8.14969C2.30516 8.00024 2.59986 7.87259 2.90297 7.76781ZM4.70859 9.96187C4.54953 10.0866 4.26984 10.4837 4.20828 10.7384C4.14859 10.9862 4.21453 11.795 4.26547 12.3091L1.49453 10.9569V9.3275L2.48609 9.24687C2.75318 9.47885 3.05842 9.66282 3.38828 9.79063L3.48141 9.82719L3.57766 9.79969C3.58141 9.79875 3.66391 9.77594 3.80828 9.74156C3.82359 9.79531 3.83953 9.84906 3.85359 9.90406L3.93609 10.2253L4.24672 10.1019C4.25203 10.1 4.43484 10.0291 4.74891 9.93625C4.73547 9.94438 4.72016 9.95312 4.70859 9.96187ZM6.70516 14.7297C6.70516 14.7297 6.54609 13.9794 6.43078 13.9794C6.42141 13.9794 6.41172 13.9847 6.40297 13.9959C6.29891 14.1262 6.04578 15.3356 6.04578 15.3356C6.04578 15.3356 5.93141 14.5328 5.79641 14.5328C5.78328 14.5328 5.77047 14.54 5.75734 14.5559C5.43234 14.9503 5.09359 15.9547 5.09359 15.9547C5.09359 15.9547 4.68328 14.3234 4.76797 13.6503C4.85672 12.9447 5.24578 11.5913 5.53422 11.0191C5.67297 10.7431 6.01953 10.2106 6.24484 10.1431C8.30422 9.52719 12.717 9.01281 14.8833 9.01281H14.9498C15.0473 9.01375 15.2795 9.32719 15.2795 9.32719C15.2795 9.32719 15.6195 9.10844 15.7892 9.10844C15.8083 9.10844 15.8252 9.11125 15.8392 9.1175C15.9042 9.14594 16.0252 9.41437 16.0252 9.41437C16.0252 9.41437 16.3811 9.44094 16.4842 9.52031C16.5727 9.58719 16.7636 9.94312 16.7636 9.94312C16.7636 9.94312 16.2495 9.83594 16.117 9.83219C16.0283 9.82964 15.9395 9.82839 15.8508 9.82844C13.6505 9.82844 9.61141 10.5325 7.64109 11.3856C7.42609 11.4781 7.10797 12.0456 7.01922 12.3556C6.88953 12.8119 6.70516 14.7297 6.70516 14.7297ZM18.5789 12.4084L7.64109 13.9569L7.11016 13.6978C7.17234 13.17 7.24516 12.6322 7.30141 12.4347C7.36359 12.2163 7.54109 11.9044 7.66859 11.7447L18.5789 10.7066V12.4084Z" fill="white" fill-opacity="0.39"/>
</g>
</g>
<defs>
<clipPath id="clip0_129_11193">
<rect width="20" height="20" fill="white" transform="translate(0.207031)"/>
</clipPath>
</defs>
</svg>
