<svg width="21" height="20" viewBox="0 0 21 20" fill="none" xmlns="http://www.w3.org/2000/svg">
<g id="game-icons:post-stamp">
<g id="Vector">
<path d="M7.88867 0.703125C7.87305 0.773047 7.85352 0.842578 7.82617 0.910156C7.66602 1.32578 7.29102 1.62305 6.84961 1.69023L6.72852 2.0043C7.00977 2.35195 7.08008 2.82461 6.91992 3.23945C6.75586 3.6543 6.38476 3.95312 5.94336 4.01953L5.82227 4.33203C6.09961 4.67969 6.16992 5.15234 6.00977 5.57031C5.84961 5.98438 5.47461 6.28125 5.0332 6.34766L4.91211 6.66406C5.19336 7.01172 5.26367 7.48438 5.09961 7.89844C4.93945 8.3125 4.56836 8.61328 4.12695 8.67969L4.00195 8.99219C4.2832 9.33984 4.35352 9.8125 4.19336 10.2266C4.0293 10.6406 3.6582 10.9414 3.21758 11.0078L3.09531 11.3203C3.37461 11.668 3.44648 12.1406 3.28437 12.5547C3.20525 12.7594 3.07332 12.9396 2.902 13.0768C2.73067 13.214 2.52607 13.3034 2.30898 13.3359L2.18711 13.6484C2.46641 13.9961 2.53789 14.4688 2.37617 14.8867C2.32813 15.0078 2.26133 15.1211 2.17969 15.2227L2.34375 15.6094C2.475 15.6172 2.60586 15.6445 2.73125 15.6953C3.14609 15.8555 3.44531 16.2305 3.5125 16.668L3.82617 16.793C4.17383 16.5117 4.64648 16.4414 5.06055 16.6016C5.47461 16.7656 5.77539 17.1367 5.8418 17.5781L6.1543 17.6992C6.50195 17.4219 6.97461 17.3477 7.38867 17.5117C7.80273 17.6719 8.10351 18.0469 8.16992 18.4883L8.48242 18.6094C8.83008 18.3281 9.30273 18.2578 9.7168 18.418C10.1035 18.5703 10.3848 18.8984 10.4785 19.2969H11.2324C11.4668 19.2266 11.7207 19.2266 11.9551 19.2969H12.7793C12.791 19.1875 12.8184 19.0781 12.8574 18.9727C13.0176 18.5586 13.3926 18.2578 13.834 18.1914L13.9551 17.8789C13.6738 17.5312 13.6035 17.0586 13.7637 16.6445C13.9277 16.2305 14.2988 15.9297 14.7402 15.8633L14.8613 15.5508C14.584 15.2031 14.5137 14.7305 14.6738 14.3125C14.834 13.8984 15.209 13.6016 15.6504 13.5352L15.7715 13.2188C15.4902 12.8711 15.4199 12.3984 15.584 11.9844C15.7441 11.5703 16.1152 11.2695 16.5566 11.2031L16.6816 10.8906C16.4004 10.543 16.3301 10.0703 16.4902 9.65625C16.6543 9.24219 17.0254 8.94141 17.4668 8.875L17.5879 8.5625C17.3105 8.21484 17.2363 7.74219 17.4004 7.32812C17.4787 7.12338 17.6101 6.94314 17.781 6.80587C17.9519 6.66859 18.1562 6.57921 18.373 6.54688L18.498 6.23047C18.2168 5.88281 18.1465 5.41406 18.3066 4.99609C18.377 4.82422 18.4824 4.66797 18.6113 4.54688L18.498 4.26953C18.3145 4.28516 18.127 4.25781 17.9512 4.1875C17.5371 4.02734 17.2363 3.6543 17.1699 3.21289L16.8574 3.09102C16.5098 3.37031 16.0371 3.4418 15.623 3.28008C15.209 3.11836 14.9082 2.7457 14.8418 2.30469L14.5293 2.18242C14.1816 2.46211 13.709 2.53359 13.2949 2.37188C12.8809 2.20977 12.5801 1.8375 12.5137 1.39609L12.2012 1.27422C11.8535 1.55352 11.3809 1.625 10.9668 1.46328C10.6191 1.32852 10.3535 1.04805 10.2402 0.703125H7.88867ZM8.76367 1.94648L16.916 5.125L11.9199 17.9375L3.76758 14.7578L8.76367 1.94648ZM13.4863 4.61719L13.2324 5.27344L15.5605 6.18359L15.8145 5.52734L13.4863 4.61719ZM10.627 5.41016C9.38476 5.42969 8.23242 6.16406 7.76758 7.35938C6.91211 9.62891 8.61133 10.9844 6.04101 13.0742L9.70117 14.5C9.7207 14.293 10.1113 13.2031 10.4473 13.2539C10.4473 13.2539 11.8027 13.918 12.3066 13.5469C12.5098 13.3867 12.4043 12.7695 12.4043 12.7695L12.834 12.707L12.7637 12.375L13.0449 12.2773L12.9746 11.9062L13.9121 11.6016C13.998 11.6211 13.6816 10.4883 13.4473 10.2461C13.5605 10.0703 13.666 9.88281 13.7402 9.69141C14.3613 8.09766 13.5332 6.28125 11.877 5.63672C11.4668 5.47656 11.041 5.40234 10.627 5.41016ZM5.17773 13.7227L4.92383 14.375L6.66992 15.0586L6.92383 14.4023L5.17773 13.7227Z" fill="#480130"/>
<path d="M7.88867 0.703125C7.87305 0.773047 7.85352 0.842578 7.82617 0.910156C7.66602 1.32578 7.29102 1.62305 6.84961 1.69023L6.72852 2.0043C7.00977 2.35195 7.08008 2.82461 6.91992 3.23945C6.75586 3.6543 6.38476 3.95312 5.94336 4.01953L5.82227 4.33203C6.09961 4.67969 6.16992 5.15234 6.00977 5.57031C5.84961 5.98438 5.47461 6.28125 5.0332 6.34766L4.91211 6.66406C5.19336 7.01172 5.26367 7.48438 5.09961 7.89844C4.93945 8.3125 4.56836 8.61328 4.12695 8.67969L4.00195 8.99219C4.2832 9.33984 4.35352 9.8125 4.19336 10.2266C4.0293 10.6406 3.6582 10.9414 3.21758 11.0078L3.09531 11.3203C3.37461 11.668 3.44648 12.1406 3.28437 12.5547C3.20525 12.7594 3.07332 12.9396 2.902 13.0768C2.73067 13.214 2.52607 13.3034 2.30898 13.3359L2.18711 13.6484C2.46641 13.9961 2.53789 14.4688 2.37617 14.8867C2.32813 15.0078 2.26133 15.1211 2.17969 15.2227L2.34375 15.6094C2.475 15.6172 2.60586 15.6445 2.73125 15.6953C3.14609 15.8555 3.44531 16.2305 3.5125 16.668L3.82617 16.793C4.17383 16.5117 4.64648 16.4414 5.06055 16.6016C5.47461 16.7656 5.77539 17.1367 5.8418 17.5781L6.1543 17.6992C6.50195 17.4219 6.97461 17.3477 7.38867 17.5117C7.80273 17.6719 8.10351 18.0469 8.16992 18.4883L8.48242 18.6094C8.83008 18.3281 9.30273 18.2578 9.7168 18.418C10.1035 18.5703 10.3848 18.8984 10.4785 19.2969H11.2324C11.4668 19.2266 11.7207 19.2266 11.9551 19.2969H12.7793C12.791 19.1875 12.8184 19.0781 12.8574 18.9727C13.0176 18.5586 13.3926 18.2578 13.834 18.1914L13.9551 17.8789C13.6738 17.5312 13.6035 17.0586 13.7637 16.6445C13.9277 16.2305 14.2988 15.9297 14.7402 15.8633L14.8613 15.5508C14.584 15.2031 14.5137 14.7305 14.6738 14.3125C14.834 13.8984 15.209 13.6016 15.6504 13.5352L15.7715 13.2188C15.4902 12.8711 15.4199 12.3984 15.584 11.9844C15.7441 11.5703 16.1152 11.2695 16.5566 11.2031L16.6816 10.8906C16.4004 10.543 16.3301 10.0703 16.4902 9.65625C16.6543 9.24219 17.0254 8.94141 17.4668 8.875L17.5879 8.5625C17.3105 8.21484 17.2363 7.74219 17.4004 7.32812C17.4787 7.12338 17.6101 6.94314 17.781 6.80587C17.9519 6.66859 18.1562 6.57921 18.373 6.54688L18.498 6.23047C18.2168 5.88281 18.1465 5.41406 18.3066 4.99609C18.377 4.82422 18.4824 4.66797 18.6113 4.54688L18.498 4.26953C18.3145 4.28516 18.127 4.25781 17.9512 4.1875C17.5371 4.02734 17.2363 3.6543 17.1699 3.21289L16.8574 3.09102C16.5098 3.37031 16.0371 3.4418 15.623 3.28008C15.209 3.11836 14.9082 2.7457 14.8418 2.30469L14.5293 2.18242C14.1816 2.46211 13.709 2.53359 13.2949 2.37188C12.8809 2.20977 12.5801 1.8375 12.5137 1.39609L12.2012 1.27422C11.8535 1.55352 11.3809 1.625 10.9668 1.46328C10.6191 1.32852 10.3535 1.04805 10.2402 0.703125H7.88867ZM8.76367 1.94648L16.916 5.125L11.9199 17.9375L3.76758 14.7578L8.76367 1.94648ZM13.4863 4.61719L13.2324 5.27344L15.5605 6.18359L15.8145 5.52734L13.4863 4.61719ZM10.627 5.41016C9.38476 5.42969 8.23242 6.16406 7.76758 7.35938C6.91211 9.62891 8.61133 10.9844 6.04101 13.0742L9.70117 14.5C9.7207 14.293 10.1113 13.2031 10.4473 13.2539C10.4473 13.2539 11.8027 13.918 12.3066 13.5469C12.5098 13.3867 12.4043 12.7695 12.4043 12.7695L12.834 12.707L12.7637 12.375L13.0449 12.2773L12.9746 11.9062L13.9121 11.6016C13.998 11.6211 13.6816 10.4883 13.4473 10.2461C13.5605 10.0703 13.666 9.88281 13.7402 9.69141C14.3613 8.09766 13.5332 6.28125 11.877 5.63672C11.4668 5.47656 11.041 5.40234 10.627 5.41016ZM5.17773 13.7227L4.92383 14.375L6.66992 15.0586L6.92383 14.4023L5.17773 13.7227Z" fill="white" fill-opacity="0.39"/>
</g>
</g>
</svg>
