<svg width="1728" height="314" viewBox="0 0 1728 314" fill="none" xmlns="http://www.w3.org/2000/svg">
<path d="M1628.77 80.949C1593 114.215 1590.97 170.182 1624.23 205.956C1657.5 241.73 1713.47 243.763 1749.24 210.497L1752.41 207.548L1631.95 78.0002L1628.77 80.949Z" fill="#FFB715" fill-opacity="0.24"/>
<path d="M-38.3914 158.068C-20.2405 206.999 34.1402 231.951 83.0714 213.8C132.003 195.65 156.955 141.269 138.804 92.3376L137.195 88.0002L-40.0004 153.73L-38.3914 158.068Z" fill="#E0F4FB"/>
<path d="M1286.06 205.614C1282.16 257.657 1321.19 303.006 1373.23 306.903C1425.28 310.8 1470.63 271.769 1474.52 219.726L1474.87 215.112L1286.4 201L1286.06 205.614Z" fill="#7CCFED" fill-opacity="0.24"/>
<path d="M1008.98 165.071C1053.92 191.618 1111.86 176.712 1138.41 131.779C1164.95 86.8451 1150.05 28.8994 1105.12 2.35307L1101.13 -0.000102797L1005 162.718L1008.98 165.071Z" fill="#EFA3BD" fill-opacity="0.24"/>
</svg>
