<svg width="21" height="20" viewBox="0 0 21 20" fill="none" xmlns="http://www.w3.org/2000/svg">
<g id="ic:twotone-dry-cleaning">
<path id="Vector" opacity="0.3" d="M7.70703 12.5H12.707V16.6667H7.70703V12.5Z" fill="#480130"/>
<g id="Vector_2">
<path d="M16.507 9.46682L11.0404 7.03348V5.83348C11.0404 5.37515 10.6654 5.00015 10.207 5.00015C9.7487 5.00015 9.3737 4.62515 9.3737 4.16682C9.3737 3.70848 9.7487 3.33348 10.207 3.33348C10.6654 3.33348 11.0404 3.70848 11.0404 4.16682H12.707C12.707 2.63348 11.3237 1.41682 9.74036 1.70848C8.75703 1.89182 7.9487 2.68348 7.75703 3.66682C7.50703 4.96682 8.25703 6.11682 9.3737 6.51682V7.04182L3.90703 9.47515C3.1737 9.79182 2.70703 10.5168 2.70703 11.3085V11.3168C2.70703 12.4335 3.60703 13.3335 4.7237 13.3335H6.04036V18.3335H14.3737V13.3335H15.6904C16.807 13.3335 17.707 12.4335 17.707 11.3168V11.3085C17.707 10.5168 17.2404 9.79182 16.507 9.46682ZM12.707 16.6668H7.70703V12.5001H12.707V16.6668ZM15.6904 11.6668H14.3737V10.8335H6.04036V11.6668H4.7237C4.34036 11.6668 4.24036 11.1251 4.58203 10.9918L10.207 8.49182L15.832 10.9918C16.182 11.1501 16.0654 11.6668 15.6904 11.6668Z" fill="#480130"/>
<path d="M16.507 9.46682L11.0404 7.03348V5.83348C11.0404 5.37515 10.6654 5.00015 10.207 5.00015C9.7487 5.00015 9.3737 4.62515 9.3737 4.16682C9.3737 3.70848 9.7487 3.33348 10.207 3.33348C10.6654 3.33348 11.0404 3.70848 11.0404 4.16682H12.707C12.707 2.63348 11.3237 1.41682 9.74036 1.70848C8.75703 1.89182 7.9487 2.68348 7.75703 3.66682C7.50703 4.96682 8.25703 6.11682 9.3737 6.51682V7.04182L3.90703 9.47515C3.1737 9.79182 2.70703 10.5168 2.70703 11.3085V11.3168C2.70703 12.4335 3.60703 13.3335 4.7237 13.3335H6.04036V18.3335H14.3737V13.3335H15.6904C16.807 13.3335 17.707 12.4335 17.707 11.3168V11.3085C17.707 10.5168 17.2404 9.79182 16.507 9.46682ZM12.707 16.6668H7.70703V12.5001H12.707V16.6668ZM15.6904 11.6668H14.3737V10.8335H6.04036V11.6668H4.7237C4.34036 11.6668 4.24036 11.1251 4.58203 10.9918L10.207 8.49182L15.832 10.9918C16.182 11.1501 16.0654 11.6668 15.6904 11.6668Z" fill="white" fill-opacity="0.39"/>
</g>
</g>
</svg>
