<svg width="21" height="20" viewBox="0 0 21 20" fill="none" xmlns="http://www.w3.org/2000/svg">
<g id="ion:bed">
<path id="Vector" d="M17.082 9.01172C16.688 8.83875 16.2623 8.74963 15.832 8.75H4.58203C4.15176 8.74958 3.7261 8.83857 3.33203 9.01133C2.77508 9.25489 2.30115 9.65543 1.96816 10.164C1.63518 10.6726 1.45756 11.2671 1.45703 11.875V16.25C1.45703 16.4158 1.52288 16.5747 1.64009 16.6919C1.7573 16.8092 1.91627 16.875 2.08203 16.875C2.24779 16.875 2.40676 16.8092 2.52397 16.6919C2.64118 16.5747 2.70703 16.4158 2.70703 16.25V15.9375C2.70804 15.8549 2.74129 15.776 2.79968 15.7176C2.85807 15.6593 2.93697 15.626 3.01953 15.625H17.3945C17.4771 15.626 17.556 15.6593 17.6144 15.7176C17.6728 15.776 17.706 15.8549 17.707 15.9375V16.25C17.707 16.4158 17.7729 16.5747 17.8901 16.6919C18.0073 16.8092 18.1663 16.875 18.332 16.875C18.4978 16.875 18.6568 16.8092 18.774 16.6919C18.8912 16.5747 18.957 16.4158 18.957 16.25V11.875C18.9564 11.2672 18.7788 10.6727 18.4458 10.1642C18.1128 9.65574 17.6389 9.25525 17.082 9.01172ZM14.8945 3.125H5.51953C4.93937 3.125 4.38297 3.35547 3.97274 3.7657C3.5625 4.17594 3.33203 4.73234 3.33203 5.3125V8.125C3.33205 8.14921 3.33769 8.17309 3.34852 8.19475C3.35935 8.21641 3.37506 8.23525 3.39441 8.2498C3.41377 8.26434 3.43624 8.27419 3.46006 8.27857C3.48387 8.28294 3.50838 8.28172 3.53164 8.275C3.87284 8.17521 4.22654 8.1247 4.58203 8.125H4.74727C4.78583 8.12524 4.82313 8.11122 4.85197 8.08562C4.88082 8.06002 4.89918 8.02465 4.90352 7.98633C4.93761 7.68093 5.08299 7.3988 5.31191 7.1938C5.54083 6.9888 5.83724 6.87531 6.14453 6.875H8.33203C8.63952 6.87502 8.93622 6.98839 9.16539 7.19341C9.39455 7.39843 9.54011 7.68073 9.57422 7.98633C9.57856 8.02465 9.59692 8.06002 9.62576 8.08562C9.65461 8.11122 9.6919 8.12524 9.73047 8.125H10.6859C10.7245 8.12524 10.7618 8.11122 10.7906 8.08562C10.8195 8.06002 10.8378 8.02465 10.8422 7.98633C10.8763 7.68113 11.0215 7.39916 11.2501 7.19419C11.4788 6.98922 11.7749 6.8756 12.082 6.875H14.2695C14.577 6.87502 14.8737 6.98839 15.1029 7.19341C15.3321 7.39843 15.4776 7.68073 15.5117 7.98633C15.5161 8.02465 15.5344 8.06002 15.5633 8.08562C15.5921 8.11122 15.6294 8.12524 15.668 8.125H15.832C16.1875 8.12483 16.5412 8.17547 16.8824 8.27539C16.9057 8.28212 16.9303 8.28333 16.9541 8.27894C16.9779 8.27455 17.0004 8.26466 17.0198 8.25007C17.0392 8.23548 17.0549 8.21659 17.0657 8.19488C17.0765 8.17317 17.0821 8.14925 17.082 8.125V5.3125C17.082 4.73234 16.8516 4.17594 16.4413 3.7657C16.0311 3.35547 15.4747 3.125 14.8945 3.125Z" fill="#480130" fill-opacity="0.47"/>
</g>
</svg>
