<svg width="21" height="20" viewBox="0 0 21 20" fill="none" xmlns="http://www.w3.org/2000/svg">
<g id="mdi:curtains">
<g id="Vector">
<path d="M19.3724 2.50016H1.03906V0.833496H19.3724V2.50016ZM1.8724 18.3335H5.20573C5.20573 15.8335 3.53906 14.1668 3.53906 14.1668C8.53906 10.8335 9.37239 3.3335 9.37239 3.3335H1.8724V18.3335ZM18.5391 3.3335H11.0391C11.0391 3.3335 11.8724 10.8335 16.8724 14.1668C16.8724 14.1668 15.2057 15.8335 15.2057 18.3335H18.5391V3.3335Z" fill="#480130"/>
<path d="M19.3724 2.50016H1.03906V0.833496H19.3724V2.50016ZM1.8724 18.3335H5.20573C5.20573 15.8335 3.53906 14.1668 3.53906 14.1668C8.53906 10.8335 9.37239 3.3335 9.37239 3.3335H1.8724V18.3335ZM18.5391 3.3335H11.0391C11.0391 3.3335 11.8724 10.8335 16.8724 14.1668C16.8724 14.1668 15.2057 15.8335 15.2057 18.3335H18.5391V3.3335Z" fill="white" fill-opacity="0.39"/>
</g>
</g>
</svg>
