<svg width="57" height="15" viewBox="0 0 57 15" fill="none" xmlns="http://www.w3.org/2000/svg">
<path d="M9.9 11.38C9.98 11.68 9.9 11.86 9.72 12.1C9.2 12.74 9.06 13.68 8.3 14.1C8.04 14.18 7.76 14.24 7.48 14.28C6.98 14.38 6.46 14.44 5.94 14.46C5.22 14.5 4.5 14.46 3.8 14.3C3.3 14.2 2.8 14.02 2.34 13.76V13.78C1.74 13.74 1.36 13.46 1.16 13.06H1.14C1.08 13.04 1.02 13.02 0.96 12.96C0.96 12.94 0.96 12.94 0.96 12.92C0.96 12.96 0.94 12.92 0.9 12.84C0.8 12.54 0.72 11.92 0.66 11.54C0.58 11.08 0.38 10.78 0.22 10.3L0.26 10.38C0.24 10.34 0.22 10.3 0.22 10.26C0.24 10.4 0.2 9.94 0.2 9.96C0.2 9.34 0.28 8.74 0.32 8.14L0.28 7.3C0.26 6.78 0.54 6.12 0.64 5.62C0.7 5.36 0.82 4.74 0.9 4.34C0.98 3.96 1.02 3.4 1.28 3.06C1.3 3.04 1.32 3.02 1.32 3.02C1.34 3.02 1.32 3.02 1.32 3.04L1.3 3.06C1.48 2.76 1.72 2.6 2 2.44L2.1 2.38L2.16 2.46V2.44L2.18 2.38C2.3 2.26 2.68 2.22 2.96 2.16C2.98 2.14 3.04 2.1 3.06 2.12C3.06 2.1 3.08 2.1 3.08 2.1C3.12 2.1 3.2 2.1 3.24 2.1C3.38 2.1 3.68 2.12 3.82 2.12C3.84 2.12 3.92 2.32 4.02 2.48C4.04 2.4 4.08 2.18 4.1 2.12C4.8 2.12 5.46 2.18 6.04 2.5C6.22 2.58 6.38 2.68 6.52 2.8C6.84 2.98 7.14 3.24 7.34 3.58C7.58 4.02 7.8 4.46 8.04 4.9C8.56 5.88 9.08 6.86 9.62 7.84C9.78 8.4 9.78 8.98 9.76 9.56C9.76 10.12 9.74 10.7 9.88 11.24C9.88 11.28 9.9 11.34 9.9 11.38ZM5.3 10.56C5.46 10.46 5.6 10.2 5.72 10.04L6.34 10.52L5.84 9.72L5.82 9.68C5.9 9.54 5.92 9.4 5.98 9.26C5.96 8.96 5.74 8.56 5.72 8.22C5.68 7.84 5.44 7.54 5.4 7.14C5.46 6.5 5.28 5.82 4.94 5.3C4.76 5.24 4.56 5.24 4.32 5.3C4.18 6.02 4.12 6.86 4.04 7.68C4.02 8.04 3.98 8.38 3.92 8.7C3.52 9.16 3.46 9.88 3.6 10.42C3.94 10.56 4.34 10.54 4.7 10.58L4.72 10.64L4.9 11.2L4.92 10.66C4.92 10.62 4.92 10.62 4.96 10.62C5.06 10.64 5.2 10.6 5.3 10.56ZM0.98 12.96L0.96 12.94L0.98 12.96ZM31.3063 11.38C31.3863 11.68 31.3063 11.86 31.1263 12.1C30.6063 12.74 30.4663 13.68 29.7063 14.1C29.4463 14.18 29.1663 14.24 28.8863 14.28C28.3863 14.38 27.8663 14.44 27.3463 14.46C26.6263 14.5 25.9063 14.46 25.2063 14.3C24.7063 14.2 24.2063 14.02 23.7463 13.76V13.78C23.1463 13.74 22.7663 13.46 22.5663 13.06H22.5463C22.4863 13.04 22.4263 13.02 22.3663 12.96C22.3663 12.94 22.3663 12.94 22.3663 12.92C22.3663 12.96 22.3463 12.92 22.3063 12.84C22.2063 12.54 22.1263 11.92 22.0662 11.54C21.9863 11.08 21.7863 10.78 21.6263 10.3L21.6663 10.38C21.6463 10.34 21.6263 10.3 21.6263 10.26C21.6463 10.4 21.6063 9.94 21.6063 9.96C21.6063 9.34 21.6863 8.74 21.7263 8.14L21.6863 7.3C21.6663 6.78 21.9463 6.12 22.0463 5.62C22.1063 5.36 22.2263 4.74 22.3063 4.34C22.3863 3.96 22.4263 3.4 22.6863 3.06C22.7063 3.04 22.7262 3.02 22.7262 3.02C22.7463 3.02 22.7262 3.02 22.7262 3.04L22.7063 3.06C22.8863 2.76 23.1263 2.6 23.4063 2.44L23.5063 2.38L23.5663 2.46V2.44L23.5863 2.38C23.7063 2.26 24.0863 2.22 24.3663 2.16C24.3863 2.14 24.4463 2.1 24.4663 2.12C24.4663 2.1 24.4863 2.1 24.4863 2.1C24.5263 2.1 24.6063 2.1 24.6463 2.1C24.7863 2.1 25.0863 2.12 25.2263 2.12C25.2463 2.12 25.3263 2.32 25.4263 2.48C25.4463 2.4 25.4863 2.18 25.5063 2.12C26.2063 2.12 26.8663 2.18 27.4463 2.5C27.6263 2.58 27.7863 2.68 27.9263 2.8C28.2463 2.98 28.5463 3.24 28.7463 3.58C28.9863 4.02 29.2063 4.46 29.4463 4.9C29.9663 5.88 30.4863 6.86 31.0263 7.84C31.1863 8.4 31.1863 8.98 31.1663 9.56C31.1663 10.12 31.1463 10.7 31.2863 11.24C31.2863 11.28 31.3063 11.34 31.3063 11.38ZM26.7063 10.56C26.8663 10.46 27.0063 10.2 27.1263 10.04L27.7463 10.52L27.2463 9.72L27.2263 9.68C27.3063 9.54 27.3263 9.4 27.3863 9.26C27.3663 8.96 27.1463 8.56 27.1263 8.22C27.0863 7.84 26.8463 7.54 26.8063 7.14C26.8663 6.5 26.6862 5.82 26.3463 5.3C26.1663 5.24 25.9663 5.24 25.7263 5.3C25.5863 6.02 25.5263 6.86 25.4463 7.68C25.4263 8.04 25.3863 8.38 25.3263 8.7C24.9263 9.16 24.8663 9.88 25.0063 10.42C25.3463 10.56 25.7463 10.54 26.1063 10.58L26.1263 10.64L26.3063 11.2L26.3263 10.66C26.3263 10.62 26.3263 10.62 26.3663 10.62C26.4663 10.64 26.6063 10.6 26.7063 10.56ZM22.3863 12.96L22.3663 12.94L22.3863 12.96Z" fill="#7CCFED"/>
<path d="M21.1995 12.46C21.4995 13.36 21.0795 13.96 20.4195 14.22C19.9795 14.42 19.4195 14.44 18.8995 14.32C18.6195 14.26 18.3395 14.14 18.0995 13.96C17.5195 13.76 17.0595 13.4 16.7595 12.94C16.5795 12.8 16.4195 12.56 16.3995 12.34C16.3995 12.38 16.3395 11.8 16.3395 11.82C16.3195 11.04 16.3395 9.9 16.3395 9.14C16.3395 8.96 16.3395 8.76 16.3395 8.56C16.1795 8.56 15.9995 8.56 15.7795 8.62C15.2995 8.68 14.5995 8.34 14.3395 8.56C14.2395 8.66 14.1995 8.86 14.3195 9.24C14.1995 9.92 14.3595 10.74 14.4595 11.52C14.5195 11.92 14.5595 12.32 14.5395 12.72C14.5395 13.18 14.4395 13.62 14.1795 14C14.1595 14.06 14.1195 14.12 14.0595 14.16C13.3395 14.66 11.8195 14.54 11.3595 13.78C11.3195 13.76 11.2795 13.74 11.2395 13.7C10.8795 13.48 10.5995 13.18 10.4195 12.78C10.3995 12.62 10.4395 12.54 10.4595 12.4C10.4595 12.4 10.5395 12.04 10.5395 12.08C10.6595 11.68 10.4795 11.3 10.3995 10.84C10.3795 10.68 10.3595 10.48 10.3795 10.3C10.4595 9.78 10.4795 9.32 10.4395 8.8C10.4395 8.44 10.4195 8.06 10.4195 7.7L10.4795 7.68L10.7995 7.46L10.5595 7.4L10.4395 7.38L10.4595 7.26C10.4795 7.12 10.5595 7.08 10.5595 6.96C10.5595 6.74 10.4195 6.48 10.4595 6.24C10.4395 6.2 10.4795 5.86 10.4795 5.8C10.4795 5.8 10.5795 5.76 10.6595 5.72L10.5395 5.58L10.4995 5.54V5.48C10.5795 4.84 10.6595 3.92 10.6795 3.3C10.6995 2.98 10.5995 2.66 10.5795 2.34C10.7195 1.34 11.8195 0.9 12.6395 1.42C12.7595 1.48 12.8595 1.6 12.9195 1.72C13.0995 1.84 13.2395 1.96 13.3595 2.08C13.4595 2.4 13.5395 2.74 13.5995 3.1C13.7195 3.94 13.7395 4.82 13.7795 5.66C13.9195 5.68 14.0595 5.68 14.1795 5.68C14.5995 5.7 15.1395 5.72 15.5595 5.78C16.2595 5.9 16.0595 5.22 16.0195 4.76C15.9995 4.6 15.9595 4.36 16.0795 4.2C16.1595 4 16.0995 3.9 16.0995 3.64C16.0795 3.34 16.0395 2.72 16.0195 2.42C15.9795 2.2 16.0395 1.98 16.0595 1.76H16.0795C16.1195 1.58 16.1995 1.4 16.2795 1.26C16.4595 0.959999 16.6995 0.839999 16.9995 0.72L17.0195 0.8L17.1395 1.32V1.34C17.1195 1.32 17.1395 1.34 17.1395 1.34L17.2395 0.78L17.2595 0.72C17.4795 0.78 17.6995 0.78 17.9195 0.859999C17.9795 0.88 17.9795 0.859999 17.9595 0.919999L17.9395 1.4L18.1995 1L18.2195 0.959999H18.2395C18.6195 1.14 18.9995 1.26 19.2595 1.6C19.2595 1.62 19.2595 1.62 19.2795 1.64C19.6595 1.98 20.0995 2.52 20.0595 3C20.0595 3.48 20.0795 3.96 20.1395 4.44C20.1995 5.4 20.3795 6.34 20.7395 7.2C20.7595 7.28 20.7995 7.34 20.8395 7.4C20.7995 8.12 20.8395 8.84 20.9195 9.54C21.0195 10.52 21.1595 11.48 21.1995 12.46ZM17.1395 1.34L17.1195 1.38L17.1395 1.34ZM12.6195 1.42L12.6795 1.44C12.6595 1.44 12.6395 1.44 12.6395 1.42H12.6195ZM45.0058 9.08V9.1C45.0258 9.28 45.0458 9.48 45.0458 9.68C45.0458 10.06 45.0058 10.44 44.9258 10.82C44.7058 12.04 44.0458 13.1 42.8258 13.16C42.5858 13.18 42.3058 13.16 41.9858 13.08C41.1658 12.92 40.7658 12.54 40.6258 12.04C40.6058 12.02 40.5658 12 40.5658 11.96C40.3858 11.78 40.4258 11.42 40.4058 11.2C40.3858 10.94 40.3858 10.68 40.4058 10.42C40.4258 9.4 40.4258 8.3 40.3858 7.24C40.2458 7.44 40.1258 7.66 39.9858 7.88C39.7658 8.26 39.5258 8.62 39.2058 8.92C39.1858 8.94 39.1658 8.96 39.1258 8.98C38.9858 9.6 38.7058 10.06 37.9858 9.88L38.0058 9.92C37.4258 9.88 37.0658 9.56 36.7858 9.14C36.7058 9.08 36.6458 9.02 36.5858 8.94C36.3858 8.68 36.2258 8.3 36.0458 8.02C35.8458 7.82 35.6858 7.62 35.5458 7.42C35.5658 8.14 35.5658 8.88 35.5858 9.62C35.6258 10.3 35.6658 10.98 35.7858 11.66C35.7858 11.74 35.8058 11.82 35.8258 11.9C35.8658 12.34 35.5658 12.42 35.3058 12.7C35.2258 12.8 35.1458 12.9 35.0658 13.02C34.8658 13.28 34.6458 13.54 34.3458 13.6C34.2658 13.62 34.2058 13.62 34.1258 13.62C33.6458 13.6 33.1658 13.48 32.7658 13.28C32.3658 13.06 32.0258 12.78 31.8658 12.46C31.8458 12.42 31.8258 12.4 31.8058 12.38C31.7458 12.3 31.6858 12.2 31.6458 12.1H31.6658C31.6258 12.04 31.6058 11.98 31.6058 11.92C31.6058 11.82 31.5858 11.74 31.6058 11.66C31.6058 11.56 31.6258 11.46 31.6258 11.38C31.6458 11.22 31.6658 11.08 31.6858 10.94C31.7458 10.4 31.7458 9.48 31.9058 9.06C32.1658 8.16 32.1258 7.22 32.1858 6.28C32.1858 5.64 32.4658 5 32.3658 4.36L32.4458 4.32L32.6658 4.22L32.3858 4.12L32.3258 4.1C32.2458 3.72 32.1458 3.14 32.2858 2.68C32.3458 2.52 32.3858 2.34 32.4458 2.2H32.5058L32.8258 2.18L32.5858 2.06L32.5658 1.9C32.5458 1.9 32.5258 1.94 32.5258 1.96L32.5458 1.92L32.6858 1.5C32.6858 1.48 32.7058 1.46 32.7058 1.46C32.7258 1.4 32.7458 1.06 32.7458 0.919999C32.7658 0.88 32.7458 0.78 32.8458 0.679999L32.8058 0.72C32.8858 0.6 32.9258 0.62 32.9858 0.579999C33.1658 0.5 33.3658 0.42 33.5658 0.359999C33.8258 0.359999 33.8858 0.539999 34.1658 0.559999C34.6858 0.679999 35.3858 0.6 35.7658 0.9C35.8458 0.959999 35.9258 1.04 35.9858 1.14C36.6258 1.66 37.0458 2.78 37.6058 3.78C37.8858 4.24 38.0858 4.8 38.3858 5.3C38.4458 5.22 38.4858 5.1 38.5458 5.02C38.6258 4.84 38.7058 4.58 38.7858 4.4C38.9858 3.94 39.2058 3.64 39.5058 3.26C39.9258 2.56 40.0458 1.58 40.5058 0.839999C40.7058 0.479999 41.0858 0.14 41.5458 0.279999C41.5658 0.299999 41.6258 0.32 41.6458 0.34V0.359999L41.7258 1.02L41.9058 0.539999L41.9258 0.5L41.9658 0.52L42.1258 0.6L42.1658 0.62C42.3258 0.639999 42.4858 0.679999 42.6258 0.72H42.6458H42.6858V0.759999C42.6858 0.759999 42.6258 1.16 42.6058 1.32L43.0058 0.819999C43.1258 0.839999 43.2058 0.9 43.2858 0.98C43.6058 1.18 43.9458 1.54 44.0658 1.86C44.3058 3.5 44.3658 5.2 44.3858 6.86C44.3658 7.16 44.4258 7.4 44.5258 7.62V7.64C44.7058 8.1 45.0058 8.5 45.0058 9.08ZM31.6058 11.92V11.9V11.92ZM55.2144 9.26C55.8544 9.28 56.3144 9.7 56.3944 10.94H56.3744C56.3344 11.28 56.2944 11.56 56.2544 11.8C55.9744 12.96 55.4944 12.88 54.2544 13.36C54.1544 13.4 54.0744 13.44 53.9744 13.48C53.4144 14 52.4344 14.34 51.4344 14.44C51.0744 14.48 50.6944 14.48 50.3544 14.46C49.9344 14.42 49.5544 14.32 49.2544 14.18C49.1544 14.12 49.0344 14.08 48.9344 14.04C48.1744 13.8 47.1544 13.9 46.8144 13.1C46.6544 13.02 46.4944 12.96 46.3744 12.84C46.1344 12.7 46.0544 12.46 45.9744 12.24C45.8344 11.94 45.5144 11.82 45.3344 11.52C45.1544 11.16 45.4744 10.76 45.7144 10.6C45.9944 10.36 46.1544 10.48 46.3944 10.4C46.7744 10 46.4744 9.32 46.5344 8.82C46.5544 8.54 46.5744 8.14 46.4944 7.88C46.2344 6.6 46.3144 5.26 46.3944 3.96L46.4144 3.72C46.4344 3.7 46.3744 3.68 46.3344 3.64C46.0944 3.54 45.8544 3.4 45.6744 3.18C45.4544 2.82 45.4744 2.38 45.6744 2.04C45.8344 1.78 46.0344 1.62 46.2344 1.44C46.9944 0.78 48.2744 0.639999 49.1944 0.839999C49.2744 0.859999 50.1544 0.919999 50.1944 0.919999L50.2344 1.02C50.2344 1.02 50.2744 1.16 50.3344 1.34L50.4144 1.02L50.4344 0.939999C50.9544 0.839999 51.4744 0.72 51.9944 0.739999C52.0744 0.739999 52.2344 0.78 52.2944 0.8V0.9C52.2944 0.9 52.3144 1.16 52.3344 1.4L52.5744 1.14L52.6544 1.04L52.7544 1.14C52.7744 1.14 52.9144 1.24 52.9144 1.24C52.9344 1.24 53.2344 1.34 53.3144 1.38C53.5144 1.44 53.6544 1.54 53.8144 1.62C54.0144 1.72 54.2544 1.74 54.3944 1.8C54.3744 1.78 54.3544 1.76 54.3344 1.76L54.7944 1.88C54.9544 1.96 55.0544 2.1 55.1344 2.24C55.1944 2.26 55.2744 2.28 55.3544 2.32C56.1144 3.68 55.7944 4.36 54.9744 4.66C54.1744 4.98 52.8944 4.94 51.7144 4.88C51.4544 4.86 51.1944 4.86 50.9544 4.84C50.3544 4.82 49.8344 4.82 49.4544 4.88C49.3144 5.24 49.2744 5.54 49.3144 5.78C49.4144 5.8 49.5144 5.82 49.5944 5.82C49.9944 5.84 50.3944 5.88 50.7944 5.86C51.1544 5.82 51.5344 5.58 51.9144 5.58C52.0344 5.58 52.1344 5.62 52.2344 5.68C52.2744 5.72 52.3144 5.76 52.3544 5.8C53.4144 6.1 53.7744 7.66 52.9944 8.42C52.9144 8.48 52.8144 8.54 52.6944 8.56L52.3944 8.62C51.7944 8.68 51.0744 8.54 50.7144 8.8C50.6344 8.86 50.5544 8.96 50.5344 9.08C50.4744 9.24 50.4744 9.46 50.5344 9.76C50.5344 9.8 50.5544 9.8 50.5544 9.82C50.5944 9.84 50.6344 9.84 50.6344 9.84C51.0144 9.86 51.3944 9.82 51.7744 9.78C52.3344 9.72 52.9144 9.64 53.4744 9.48C53.6744 9.42 53.8944 9.32 54.1344 9.26C54.1744 9.24 54.1944 9.24 54.2344 9.22C54.2544 9.22 54.2944 9.22 54.3344 9.2C54.4144 9.18 54.4944 9.18 54.5744 9.16C54.6144 9.16 54.6544 9.14 54.7144 9.14C54.9144 9.14 55.0744 9.18 55.2144 9.26ZM52.9544 1.26C52.9344 1.26 52.9344 1.26 52.9344 1.26L52.9744 1.34C52.9744 1.32 52.9744 1.28 52.9544 1.26ZM53.3144 1.38H53.3544H53.3144Z" fill="#2D2D2D"/>
</svg>
