<svg width="21" height="20" viewBox="0 0 21 20" fill="none" xmlns="http://www.w3.org/2000/svg">
<g id="streamline:shopping-catergories-chair-design-lounge-furniture-chair-interior-decorate-armchair-decoration" clip-path="url(#clip0_129_11188)">
<path id="Vector" d="M3.77902 10.7141H2.35045C1.97157 10.7141 1.6082 10.8647 1.34029 11.1326C1.07238 11.4005 0.921875 11.7638 0.921875 12.1427V19.2856H5.20759M3.77902 10.7141C4.1579 10.7141 4.52126 10.8647 4.78917 11.1326C5.05708 11.4005 5.20759 11.7638 5.20759 12.1427V19.2856M3.77902 10.7141V7.857C3.77902 6.72036 4.23055 5.63027 5.03427 4.82655C5.838 4.02282 6.92809 3.57129 8.06473 3.57129H12.3504C13.4871 3.57129 14.5772 4.02282 15.3809 4.82655C16.1846 5.63027 16.6362 6.72036 16.6362 7.857V10.7141M5.20759 19.2856H15.2076M16.6362 10.7141H18.0647C18.4436 10.7141 18.807 10.8647 19.0749 11.1326C19.3428 11.4005 19.4933 11.7638 19.4933 12.1427V19.2856H15.2076M16.6362 10.7141C16.2573 10.7141 15.8939 10.8647 15.626 11.1326C15.3581 11.4005 15.2076 11.7638 15.2076 12.1427V19.2856M5.20759 13.5713H15.2076" stroke="#480130" stroke-opacity="0.64" stroke-width="1.42857" stroke-linecap="round" stroke-linejoin="round"/>
</g>
<defs>
<clipPath id="clip0_129_11188">
<rect width="20" height="20" fill="white" transform="translate(0.207031)"/>
</clipPath>
</defs>
</svg>
